G75*
%MOIN*%
%OFA0B0*%
%FSLAX24Y24*%
%IPPOS*%
%LPD*%
%AMOC8*
5,1,8,0,0,1.08239X$1,22.5*
%
%ADD10C,0.0000*%
%ADD11C,0.1300*%
%ADD12R,0.0158X0.0512*%
%ADD13R,0.0512X0.0512*%
%ADD14R,0.0552X0.0631*%
%ADD15R,0.0631X0.0552*%
%ADD16R,0.0780X0.0780*%
%ADD17C,0.0780*%
%ADD18R,0.0900X0.0900*%
%ADD19C,0.0900*%
%ADD20OC8,0.0670*%
%ADD21C,0.0670*%
%ADD22R,0.0257X0.0512*%
%ADD23R,0.0749X0.0532*%
%ADD24C,0.0674*%
%ADD25OC8,0.0680*%
%ADD26R,0.0434X0.0591*%
%ADD27R,0.0591X0.0591*%
%ADD28R,0.0700X0.0700*%
%ADD29C,0.0700*%
%ADD30C,0.0340*%
D10*
X000550Y001033D02*
X000550Y019144D01*
X000552Y019198D01*
X000557Y019251D01*
X000566Y019304D01*
X000579Y019356D01*
X000595Y019408D01*
X000615Y019458D01*
X000638Y019506D01*
X000665Y019553D01*
X000694Y019598D01*
X000727Y019641D01*
X000762Y019681D01*
X000800Y019719D01*
X000840Y019754D01*
X000883Y019787D01*
X000928Y019816D01*
X000975Y019843D01*
X001023Y019866D01*
X001073Y019886D01*
X001125Y019902D01*
X001177Y019915D01*
X001230Y019924D01*
X001283Y019929D01*
X001337Y019931D01*
X019448Y019931D01*
X019502Y019929D01*
X019555Y019924D01*
X019608Y019915D01*
X019660Y019902D01*
X019712Y019886D01*
X019762Y019866D01*
X019810Y019843D01*
X019857Y019816D01*
X019902Y019787D01*
X019945Y019754D01*
X019985Y019719D01*
X020023Y019681D01*
X020058Y019641D01*
X020091Y019598D01*
X020120Y019553D01*
X020147Y019506D01*
X020170Y019458D01*
X020190Y019408D01*
X020206Y019356D01*
X020219Y019304D01*
X020228Y019251D01*
X020233Y019198D01*
X020235Y019144D01*
X020235Y001033D01*
X020233Y000979D01*
X020228Y000926D01*
X020219Y000873D01*
X020206Y000821D01*
X020190Y000769D01*
X020170Y000719D01*
X020147Y000671D01*
X020120Y000624D01*
X020091Y000579D01*
X020058Y000536D01*
X020023Y000496D01*
X019985Y000458D01*
X019945Y000423D01*
X019902Y000390D01*
X019857Y000361D01*
X019810Y000334D01*
X019762Y000311D01*
X019712Y000291D01*
X019660Y000275D01*
X019608Y000262D01*
X019555Y000253D01*
X019502Y000248D01*
X019448Y000246D01*
X001337Y000246D01*
X001283Y000248D01*
X001230Y000253D01*
X001177Y000262D01*
X001125Y000275D01*
X001073Y000291D01*
X001023Y000311D01*
X000975Y000334D01*
X000928Y000361D01*
X000883Y000390D01*
X000840Y000423D01*
X000800Y000458D01*
X000762Y000496D01*
X000727Y000536D01*
X000694Y000579D01*
X000665Y000624D01*
X000638Y000671D01*
X000615Y000719D01*
X000595Y000769D01*
X000579Y000821D01*
X000566Y000873D01*
X000557Y000926D01*
X000552Y000979D01*
X000550Y001033D01*
D11*
X001731Y001427D03*
X019054Y001427D03*
X019054Y018750D03*
X001731Y018750D03*
D12*
X012398Y007638D03*
X012654Y007638D03*
X012910Y007638D03*
X013166Y007638D03*
X013422Y007638D03*
X013678Y007638D03*
X013934Y007638D03*
X014190Y007638D03*
X014446Y007638D03*
X014702Y007638D03*
X014702Y005354D03*
X014446Y005354D03*
X014190Y005354D03*
X013934Y005354D03*
X013678Y005354D03*
X013422Y005354D03*
X013166Y005354D03*
X012910Y005354D03*
X012654Y005354D03*
X012398Y005354D03*
D13*
X002463Y007246D03*
X001637Y007246D03*
D14*
X001676Y005746D03*
X002424Y005746D03*
X007676Y006246D03*
X008424Y006246D03*
X008424Y007746D03*
X007676Y007746D03*
X010176Y003246D03*
X010924Y003246D03*
X010924Y002246D03*
X010176Y002246D03*
X012176Y002246D03*
X012924Y002246D03*
X012924Y003246D03*
X012176Y003246D03*
X014676Y003246D03*
X015424Y003246D03*
X015424Y002246D03*
X014676Y002246D03*
X014676Y001246D03*
X015424Y001246D03*
X016676Y001246D03*
X017424Y001246D03*
X017424Y002246D03*
X016676Y002246D03*
X016676Y003246D03*
X017424Y003246D03*
D15*
X017050Y005272D03*
X017050Y006020D03*
X017050Y006972D03*
X017050Y007720D03*
X015550Y006870D03*
X015550Y006122D03*
X015050Y009372D03*
X015050Y010120D03*
X012050Y010120D03*
X012050Y009372D03*
X009050Y009372D03*
X009050Y010120D03*
X006050Y010120D03*
X006050Y009372D03*
X003050Y009372D03*
X003050Y010120D03*
D16*
X019050Y011246D03*
X019050Y016246D03*
X019050Y006246D03*
D17*
X019050Y005246D03*
X019050Y004246D03*
X019050Y003246D03*
X019050Y008246D03*
X019050Y009246D03*
X019050Y010246D03*
X019050Y013246D03*
X019050Y014246D03*
X019050Y015246D03*
D18*
X003550Y001746D03*
D19*
X005550Y001746D03*
D20*
X004050Y005996D03*
X011050Y005246D03*
D21*
X010050Y005246D03*
X005050Y005996D03*
D22*
X007676Y003758D03*
X008050Y003758D03*
X008424Y003758D03*
X008424Y002734D03*
X007676Y002734D03*
D23*
X007538Y001246D03*
X008562Y001246D03*
D24*
X008550Y012746D03*
X009550Y012746D03*
X009550Y014746D03*
X009550Y015746D03*
X008550Y015746D03*
X008550Y014746D03*
X008550Y016746D03*
X009550Y016746D03*
X011550Y016746D03*
X012550Y016746D03*
X012550Y015746D03*
X012550Y014746D03*
X011550Y014746D03*
X011550Y015746D03*
X014550Y015746D03*
X014550Y014746D03*
X015550Y014746D03*
X015550Y015746D03*
X015550Y016746D03*
X014550Y016746D03*
X017550Y016746D03*
X017550Y015746D03*
X017550Y014746D03*
X017550Y012746D03*
X015550Y012746D03*
X014550Y012746D03*
X012550Y012746D03*
X011550Y012746D03*
X006550Y012746D03*
X005550Y012746D03*
X003550Y012746D03*
X003550Y014746D03*
X003550Y015746D03*
X003550Y016746D03*
X005550Y016746D03*
X006550Y016746D03*
X006550Y015746D03*
X006550Y014746D03*
X005550Y014746D03*
X005550Y015746D03*
D25*
X005550Y018246D03*
X005550Y019246D03*
X004550Y019246D03*
X003550Y019246D03*
X003550Y018246D03*
X004550Y018246D03*
X006550Y018246D03*
X006550Y019246D03*
X007550Y019246D03*
X008550Y019246D03*
X009550Y019246D03*
X010550Y019246D03*
X011550Y019246D03*
X012550Y019246D03*
X013550Y019246D03*
X014550Y019246D03*
X015550Y019246D03*
X016550Y019246D03*
X017550Y019246D03*
X017550Y018246D03*
X016550Y018246D03*
X015550Y018246D03*
X014550Y018246D03*
X013550Y018246D03*
X012550Y018246D03*
X011550Y018246D03*
X010550Y018246D03*
X009550Y018246D03*
X008550Y018246D03*
X007550Y018246D03*
D26*
X007550Y010179D03*
X007176Y009313D03*
X007924Y009313D03*
X010176Y009313D03*
X010924Y009313D03*
X010550Y010179D03*
X013176Y009313D03*
X013924Y009313D03*
X013550Y010179D03*
X016176Y009313D03*
X016924Y009313D03*
X016550Y010179D03*
X004924Y009313D03*
X004176Y009313D03*
X004550Y010179D03*
D27*
X003802Y011246D03*
X005298Y011246D03*
X006802Y011246D03*
X008298Y011246D03*
X009802Y011246D03*
X011298Y011246D03*
X012802Y011246D03*
X014298Y011246D03*
X015802Y011246D03*
X017298Y011246D03*
D28*
X001550Y011246D03*
X001550Y016246D03*
X001550Y004246D03*
D29*
X001550Y003246D03*
X001550Y009246D03*
X001550Y010246D03*
X001550Y014246D03*
X001550Y015246D03*
D30*
X014050Y003746D03*
X015800Y007996D03*
M02*
