G75*
%MOIN*%
%OFA0B0*%
%FSLAX24Y24*%
%IPPOS*%
%LPD*%
%AMOC8*
5,1,8,0,0,1.08239X$1,22.5*
%
%ADD10C,0.0000*%
%ADD11C,0.0040*%
%ADD12C,0.0050*%
%ADD13R,0.0118X0.0059*%
%ADD14R,0.0118X0.0118*%
%ADD15R,0.0236X0.0531*%
%ADD16R,0.1634X0.0030*%
%ADD17R,0.0049X0.0591*%
%ADD18R,0.0197X0.0591*%
%ADD19C,0.0060*%
%ADD20C,0.0020*%
%ADD21R,0.0256X0.0551*%
%ADD22R,0.0571X0.0295*%
%ADD23R,0.0551X0.0256*%
%ADD24C,0.0080*%
%ADD25R,0.0200X0.0200*%
%ADD26R,0.0200X0.1000*%
%ADD27C,0.0070*%
%ADD28R,0.0197X0.0256*%
%ADD29C,0.0197*%
%ADD30R,0.0050X0.0472*%
%ADD31R,0.1000X0.0250*%
%ADD32R,0.0295X0.0571*%
%ADD33R,0.0180X0.0230*%
%ADD34C,0.0100*%
%ADD35R,0.0295X0.0335*%
%ADD36R,0.0354X0.0531*%
D10*
X000550Y001033D02*
X000550Y019144D01*
X000552Y019198D01*
X000557Y019251D01*
X000566Y019304D01*
X000579Y019356D01*
X000595Y019408D01*
X000615Y019458D01*
X000638Y019506D01*
X000665Y019553D01*
X000694Y019598D01*
X000727Y019641D01*
X000762Y019681D01*
X000800Y019719D01*
X000840Y019754D01*
X000883Y019787D01*
X000928Y019816D01*
X000975Y019843D01*
X001023Y019866D01*
X001073Y019886D01*
X001125Y019902D01*
X001177Y019915D01*
X001230Y019924D01*
X001283Y019929D01*
X001337Y019931D01*
X019448Y019931D01*
X019502Y019929D01*
X019555Y019924D01*
X019608Y019915D01*
X019660Y019902D01*
X019712Y019886D01*
X019762Y019866D01*
X019810Y019843D01*
X019857Y019816D01*
X019902Y019787D01*
X019945Y019754D01*
X019985Y019719D01*
X020023Y019681D01*
X020058Y019641D01*
X020091Y019598D01*
X020120Y019553D01*
X020147Y019506D01*
X020170Y019458D01*
X020190Y019408D01*
X020206Y019356D01*
X020219Y019304D01*
X020228Y019251D01*
X020233Y019198D01*
X020235Y019144D01*
X020235Y001033D01*
X020233Y000979D01*
X020228Y000926D01*
X020219Y000873D01*
X020206Y000821D01*
X020190Y000769D01*
X020170Y000719D01*
X020147Y000671D01*
X020120Y000624D01*
X020091Y000579D01*
X020058Y000536D01*
X020023Y000496D01*
X019985Y000458D01*
X019945Y000423D01*
X019902Y000390D01*
X019857Y000361D01*
X019810Y000334D01*
X019762Y000311D01*
X019712Y000291D01*
X019660Y000275D01*
X019608Y000262D01*
X019555Y000253D01*
X019502Y000248D01*
X019448Y000246D01*
X001337Y000246D01*
X001283Y000248D01*
X001230Y000253D01*
X001177Y000262D01*
X001125Y000275D01*
X001073Y000291D01*
X001023Y000311D01*
X000975Y000334D01*
X000928Y000361D01*
X000883Y000390D01*
X000840Y000423D01*
X000800Y000458D01*
X000762Y000496D01*
X000727Y000536D01*
X000694Y000579D01*
X000665Y000624D01*
X000638Y000671D01*
X000615Y000719D01*
X000595Y000769D01*
X000579Y000821D01*
X000566Y000873D01*
X000557Y000926D01*
X000552Y000979D01*
X000550Y001033D01*
X007085Y000793D02*
X007085Y001699D01*
X009015Y001699D01*
X009015Y000793D01*
X007085Y000793D01*
D11*
X007592Y002016D02*
X007746Y002016D01*
X007669Y002016D02*
X007669Y002476D01*
X007592Y002476D02*
X007746Y002476D01*
X007899Y002400D02*
X007899Y002093D01*
X007976Y002016D01*
X008129Y002016D01*
X008206Y002093D01*
X008360Y002016D02*
X008667Y002016D01*
X008513Y002016D02*
X008513Y002476D01*
X008360Y002323D01*
X008206Y002400D02*
X008129Y002476D01*
X007976Y002476D01*
X007899Y002400D01*
X008899Y002400D02*
X008899Y002093D01*
X008976Y002016D01*
X009129Y002016D01*
X009206Y002093D01*
X009360Y002093D02*
X009436Y002016D01*
X009590Y002016D01*
X009667Y002093D01*
X009667Y002169D01*
X009590Y002246D01*
X009360Y002246D01*
X009360Y002093D01*
X009360Y002246D02*
X009513Y002400D01*
X009667Y002476D01*
X009206Y002400D02*
X009129Y002476D01*
X008976Y002476D01*
X008899Y002400D01*
X008976Y003016D02*
X008899Y003093D01*
X008899Y003400D01*
X008976Y003476D01*
X009129Y003476D01*
X009206Y003400D01*
X009360Y003400D02*
X009360Y003323D01*
X009436Y003246D01*
X009590Y003246D01*
X009667Y003169D01*
X009667Y003093D01*
X009590Y003016D01*
X009436Y003016D01*
X009360Y003093D01*
X009360Y003169D01*
X009436Y003246D01*
X009590Y003246D02*
X009667Y003323D01*
X009667Y003400D01*
X009590Y003476D01*
X009436Y003476D01*
X009360Y003400D01*
X009206Y003093D02*
X009129Y003016D01*
X008976Y003016D01*
X010410Y002986D02*
X010700Y002986D01*
X010700Y002506D02*
X010400Y002506D01*
X010410Y001986D02*
X010700Y001986D01*
X011899Y001726D02*
X011899Y001266D01*
X011899Y001419D02*
X012129Y001419D01*
X012206Y001496D01*
X012206Y001650D01*
X012129Y001726D01*
X011899Y001726D01*
X012053Y001419D02*
X012206Y001266D01*
X012360Y001343D02*
X012436Y001266D01*
X012590Y001266D01*
X012667Y001343D01*
X012667Y001496D01*
X012590Y001573D01*
X012513Y001573D01*
X012360Y001496D01*
X012360Y001726D01*
X012667Y001726D01*
X013399Y001766D02*
X013399Y002226D01*
X013629Y002226D01*
X013706Y002150D01*
X013706Y001996D01*
X013629Y001919D01*
X013399Y001919D01*
X013553Y001919D02*
X013706Y001766D01*
X013860Y001843D02*
X013936Y001766D01*
X014090Y001766D01*
X014167Y001843D01*
X014167Y001919D01*
X014090Y001996D01*
X014013Y001996D01*
X014090Y001996D02*
X014167Y002073D01*
X014167Y002150D01*
X014090Y002226D01*
X013936Y002226D01*
X013860Y002150D01*
X014013Y001226D02*
X013860Y001073D01*
X013706Y001150D02*
X013706Y000996D01*
X013629Y000919D01*
X013399Y000919D01*
X013399Y000766D02*
X013399Y001226D01*
X013629Y001226D01*
X013706Y001150D01*
X013553Y000919D02*
X013706Y000766D01*
X013860Y000766D02*
X014167Y000766D01*
X014013Y000766D02*
X014013Y001226D01*
X015899Y000976D02*
X015899Y000516D01*
X015899Y000669D02*
X016129Y000669D01*
X016206Y000746D01*
X016206Y000900D01*
X016129Y000976D01*
X015899Y000976D01*
X016053Y000669D02*
X016206Y000516D01*
X016360Y000516D02*
X016667Y000823D01*
X016667Y000900D01*
X016590Y000976D01*
X016436Y000976D01*
X016360Y000900D01*
X016360Y000516D02*
X016667Y000516D01*
X016900Y001986D02*
X017200Y001986D01*
X017190Y002506D02*
X016900Y002506D01*
X016900Y002986D02*
X017200Y002986D01*
X017190Y003506D02*
X016900Y003506D01*
X016800Y003766D02*
X016647Y003766D01*
X016570Y003843D01*
X016570Y004150D01*
X016647Y004226D01*
X016800Y004226D01*
X016877Y004150D01*
X017030Y004226D02*
X017030Y003996D01*
X017184Y004073D01*
X017261Y004073D01*
X017337Y003996D01*
X017337Y003843D01*
X017261Y003766D01*
X017107Y003766D01*
X017030Y003843D01*
X016877Y003843D02*
X016800Y003766D01*
X017030Y004226D02*
X017337Y004226D01*
X017820Y004169D02*
X018050Y004169D01*
X018127Y004246D01*
X018127Y004400D01*
X018050Y004476D01*
X017820Y004476D01*
X017820Y004016D01*
X017973Y004169D02*
X018127Y004016D01*
X017820Y003476D02*
X017820Y003016D01*
X018127Y003016D01*
X018050Y002726D02*
X017897Y002726D01*
X017820Y002650D01*
X017820Y002343D01*
X017897Y002266D01*
X018050Y002266D01*
X018127Y002343D01*
X018280Y002496D02*
X018587Y002496D01*
X018511Y002266D02*
X018511Y002726D01*
X018280Y002496D01*
X018127Y002650D02*
X018050Y002726D01*
X016453Y004866D02*
X016146Y004866D01*
X016070Y004943D01*
X016070Y005096D01*
X016146Y005173D01*
X016146Y005326D02*
X016223Y005326D01*
X016300Y005403D01*
X016300Y005633D01*
X016453Y005633D02*
X016146Y005633D01*
X016070Y005557D01*
X016070Y005403D01*
X016146Y005326D01*
X016453Y005326D02*
X016530Y005403D01*
X016530Y005557D01*
X016453Y005633D01*
X016790Y005496D02*
X016790Y005786D01*
X017310Y005796D02*
X017310Y005496D01*
X017820Y005476D02*
X017820Y005016D01*
X018127Y005016D02*
X018127Y005476D01*
X017973Y005323D01*
X017820Y005476D01*
X017897Y006016D02*
X018050Y006016D01*
X018127Y006093D01*
X018127Y006246D01*
X017973Y006246D01*
X017820Y006093D02*
X017897Y006016D01*
X017820Y006093D02*
X017820Y006400D01*
X017897Y006476D01*
X018050Y006476D01*
X018127Y006400D01*
X016530Y007116D02*
X016070Y007116D01*
X016070Y007346D01*
X016146Y007423D01*
X016300Y007423D01*
X016377Y007346D01*
X016377Y007116D01*
X016377Y007269D02*
X016530Y007423D01*
X016530Y007576D02*
X016453Y007576D01*
X016146Y007883D01*
X016070Y007883D01*
X016070Y007576D01*
X015810Y006646D02*
X015810Y006346D01*
X015290Y006346D02*
X015290Y006636D01*
X014415Y006220D02*
X014415Y005760D01*
X014568Y005760D02*
X014261Y005760D01*
X014108Y005837D02*
X014108Y006220D01*
X014261Y006067D02*
X014415Y006220D01*
X014108Y005837D02*
X014031Y005760D01*
X013877Y005760D01*
X013801Y005837D01*
X013801Y006220D01*
X015320Y005536D02*
X015320Y005382D01*
X015396Y005306D01*
X015396Y005152D02*
X015320Y005075D01*
X015320Y004922D01*
X015396Y004845D01*
X015703Y004845D01*
X015780Y004922D01*
X015780Y005075D01*
X015703Y005152D01*
X015780Y005306D02*
X015473Y005613D01*
X015396Y005613D01*
X015320Y005536D01*
X015780Y005613D02*
X015780Y005306D01*
X016453Y005173D02*
X016530Y005096D01*
X016530Y004943D01*
X016453Y004866D01*
X015511Y004226D02*
X015280Y003996D01*
X015587Y003996D01*
X015511Y003766D02*
X015511Y004226D01*
X015127Y004150D02*
X015127Y003996D01*
X015050Y003919D01*
X014820Y003919D01*
X014820Y003766D02*
X014820Y004226D01*
X015050Y004226D01*
X015127Y004150D01*
X014973Y003919D02*
X015127Y003766D01*
X013087Y003843D02*
X013087Y003919D01*
X013011Y003996D01*
X012780Y003996D01*
X012780Y003843D01*
X012857Y003766D01*
X013011Y003766D01*
X013087Y003843D01*
X012934Y004150D02*
X012780Y003996D01*
X012627Y003996D02*
X012550Y003919D01*
X012320Y003919D01*
X012320Y003766D02*
X012320Y004226D01*
X012550Y004226D01*
X012627Y004150D01*
X012627Y003996D01*
X012473Y003919D02*
X012627Y003766D01*
X012934Y004150D02*
X013087Y004226D01*
X010700Y003506D02*
X010400Y003506D01*
X008167Y005343D02*
X008167Y005650D01*
X008090Y005726D01*
X007936Y005726D01*
X007860Y005650D01*
X007860Y005573D01*
X007936Y005496D01*
X008167Y005496D01*
X008167Y005343D02*
X008090Y005266D01*
X007936Y005266D01*
X007860Y005343D01*
X007706Y005266D02*
X007553Y005419D01*
X007629Y005419D02*
X007399Y005419D01*
X007399Y005266D02*
X007399Y005726D01*
X007629Y005726D01*
X007706Y005650D01*
X007706Y005496D01*
X007629Y005419D01*
X007553Y006766D02*
X007553Y007226D01*
X007399Y007073D01*
X007246Y007150D02*
X007246Y006996D01*
X007169Y006919D01*
X006939Y006919D01*
X006939Y006766D02*
X006939Y007226D01*
X007169Y007226D01*
X007246Y007150D01*
X007092Y006919D02*
X007246Y006766D01*
X007399Y006766D02*
X007706Y006766D01*
X007860Y006843D02*
X008167Y007150D01*
X008167Y006843D01*
X008090Y006766D01*
X007936Y006766D01*
X007860Y006843D01*
X007860Y007150D01*
X007936Y007226D01*
X008090Y007226D01*
X008167Y007150D01*
X006263Y004226D02*
X006263Y003766D01*
X006110Y003766D02*
X006417Y003766D01*
X006110Y004073D02*
X006263Y004226D01*
X005956Y004150D02*
X005956Y003996D01*
X005879Y003919D01*
X005649Y003919D01*
X005649Y003766D02*
X005649Y004226D01*
X005879Y004226D01*
X005956Y004150D01*
X005496Y004226D02*
X005342Y004226D01*
X005419Y004226D02*
X005419Y003843D01*
X005342Y003766D01*
X005266Y003766D01*
X005189Y003843D01*
X002417Y006266D02*
X002110Y006266D01*
X002263Y006266D02*
X002263Y006726D01*
X002110Y006573D01*
X001956Y006650D02*
X001956Y006343D01*
X001879Y006266D01*
X001649Y006266D01*
X001649Y006726D01*
X001879Y006726D01*
X001956Y006650D01*
X001873Y007000D02*
X002227Y007000D01*
X002237Y007492D02*
X001873Y007492D01*
X001496Y006726D02*
X001189Y006726D01*
X001189Y006266D01*
X001496Y006266D01*
X001342Y006496D02*
X001189Y006496D01*
X001035Y006266D02*
X000728Y006266D01*
X000728Y006726D01*
X001399Y005226D02*
X001629Y005226D01*
X001706Y005150D01*
X001706Y004996D01*
X001629Y004919D01*
X001399Y004919D01*
X001399Y004766D02*
X001399Y005226D01*
X001553Y004919D02*
X001706Y004766D01*
X001860Y004843D02*
X001860Y004919D01*
X001936Y004996D01*
X002090Y004996D01*
X002167Y004919D01*
X002167Y004843D01*
X002090Y004766D01*
X001936Y004766D01*
X001860Y004843D01*
X001936Y004996D02*
X001860Y005073D01*
X001860Y005150D01*
X001936Y005226D01*
X002090Y005226D01*
X002167Y005150D01*
X002167Y005073D01*
X002090Y004996D01*
X002820Y010516D02*
X002820Y010746D01*
X002896Y010823D01*
X003050Y010823D01*
X003127Y010746D01*
X003127Y010516D01*
X003280Y010516D02*
X002820Y010516D01*
X003127Y010669D02*
X003280Y010823D01*
X003280Y010976D02*
X003280Y011283D01*
X003280Y011130D02*
X002820Y011130D01*
X002973Y010976D01*
X002973Y011437D02*
X002820Y011590D01*
X003280Y011590D01*
X003280Y011437D02*
X003280Y011744D01*
X004082Y012372D02*
X004312Y012372D01*
X004389Y012449D01*
X004389Y012756D01*
X004312Y012833D01*
X004082Y012833D01*
X004082Y012372D01*
X004543Y012372D02*
X004850Y012372D01*
X004696Y012372D02*
X004696Y012833D01*
X004543Y012679D01*
X004610Y013266D02*
X004917Y013266D01*
X004763Y013266D02*
X004763Y013726D01*
X004610Y013573D01*
X004456Y013726D02*
X004149Y013419D01*
X004226Y013496D02*
X004456Y013266D01*
X004149Y013266D02*
X004149Y013726D01*
X005896Y011744D02*
X005820Y011667D01*
X005820Y011514D01*
X005896Y011437D01*
X005896Y011744D02*
X005973Y011744D01*
X006280Y011437D01*
X006280Y011744D01*
X006280Y011283D02*
X006280Y010976D01*
X006280Y010823D02*
X006127Y010669D01*
X006127Y010746D02*
X006127Y010516D01*
X006280Y010516D02*
X005820Y010516D01*
X005820Y010746D01*
X005896Y010823D01*
X006050Y010823D01*
X006127Y010746D01*
X005973Y010976D02*
X005820Y011130D01*
X006280Y011130D01*
X007070Y010900D02*
X007070Y010593D01*
X007147Y010516D01*
X007300Y010516D01*
X007377Y010593D01*
X007377Y010900D01*
X007300Y010976D01*
X007147Y010976D01*
X007070Y010900D01*
X007223Y010669D02*
X007377Y010516D01*
X007530Y010516D02*
X007837Y010823D01*
X007837Y010900D01*
X007761Y010976D01*
X007607Y010976D01*
X007530Y010900D01*
X007530Y010516D02*
X007837Y010516D01*
X008820Y010516D02*
X008820Y010746D01*
X008896Y010823D01*
X009050Y010823D01*
X009127Y010746D01*
X009127Y010516D01*
X009280Y010516D02*
X008820Y010516D01*
X009127Y010669D02*
X009280Y010823D01*
X009280Y010976D02*
X009280Y011283D01*
X009280Y011130D02*
X008820Y011130D01*
X008973Y010976D01*
X008896Y011437D02*
X008820Y011514D01*
X008820Y011667D01*
X008896Y011744D01*
X008973Y011744D01*
X009050Y011667D01*
X009127Y011744D01*
X009203Y011744D01*
X009280Y011667D01*
X009280Y011514D01*
X009203Y011437D01*
X009050Y011590D02*
X009050Y011667D01*
X010082Y012372D02*
X010082Y012833D01*
X010312Y012833D01*
X010389Y012756D01*
X010389Y012449D01*
X010312Y012372D01*
X010082Y012372D01*
X010543Y012449D02*
X010619Y012372D01*
X010773Y012372D01*
X010850Y012449D01*
X010850Y012526D01*
X010773Y012602D01*
X010696Y012602D01*
X010773Y012602D02*
X010850Y012679D01*
X010850Y012756D01*
X010773Y012833D01*
X010619Y012833D01*
X010543Y012756D01*
X010456Y013266D02*
X010226Y013496D01*
X010149Y013419D02*
X010456Y013726D01*
X010610Y013650D02*
X010686Y013726D01*
X010840Y013726D01*
X010917Y013650D01*
X010917Y013573D01*
X010840Y013496D01*
X010917Y013419D01*
X010917Y013343D01*
X010840Y013266D01*
X010686Y013266D01*
X010610Y013343D01*
X010763Y013496D02*
X010840Y013496D01*
X010149Y013726D02*
X010149Y013266D01*
X011820Y011667D02*
X012050Y011437D01*
X012050Y011744D01*
X012280Y011667D02*
X011820Y011667D01*
X012280Y011283D02*
X012280Y010976D01*
X012280Y010823D02*
X012127Y010669D01*
X012127Y010746D02*
X012127Y010516D01*
X012280Y010516D02*
X011820Y010516D01*
X011820Y010746D01*
X011896Y010823D01*
X012050Y010823D01*
X012127Y010746D01*
X011973Y010976D02*
X011820Y011130D01*
X012280Y011130D01*
X013070Y010900D02*
X013070Y010593D01*
X013147Y010516D01*
X013300Y010516D01*
X013377Y010593D01*
X013377Y010900D01*
X013300Y010976D01*
X013147Y010976D01*
X013070Y010900D01*
X013223Y010669D02*
X013377Y010516D01*
X013530Y010746D02*
X013837Y010746D01*
X013761Y010516D02*
X013761Y010976D01*
X013530Y010746D01*
X014820Y010746D02*
X014820Y010516D01*
X015280Y010516D01*
X015127Y010516D02*
X015127Y010746D01*
X015050Y010823D01*
X014896Y010823D01*
X014820Y010746D01*
X014973Y010976D02*
X014820Y011130D01*
X015280Y011130D01*
X015280Y011283D02*
X015280Y010976D01*
X015280Y010823D02*
X015127Y010669D01*
X015203Y011437D02*
X015280Y011514D01*
X015280Y011667D01*
X015203Y011744D01*
X015050Y011744D01*
X014973Y011667D01*
X014973Y011590D01*
X015050Y011437D01*
X014820Y011437D01*
X014820Y011744D01*
X013773Y012372D02*
X013773Y012833D01*
X013543Y012602D01*
X013850Y012602D01*
X013389Y012449D02*
X013389Y012756D01*
X013312Y012833D01*
X013082Y012833D01*
X013082Y012372D01*
X013312Y012372D01*
X013389Y012449D01*
X013456Y013266D02*
X013226Y013496D01*
X013149Y013419D02*
X013456Y013726D01*
X013610Y013496D02*
X013917Y013496D01*
X013840Y013266D02*
X013840Y013726D01*
X013610Y013496D01*
X013149Y013726D02*
X013149Y013266D01*
X010837Y010900D02*
X010837Y010823D01*
X010761Y010746D01*
X010837Y010669D01*
X010837Y010593D01*
X010761Y010516D01*
X010607Y010516D01*
X010530Y010593D01*
X010377Y010593D02*
X010300Y010516D01*
X010147Y010516D01*
X010070Y010593D01*
X010070Y010900D01*
X010147Y010976D01*
X010300Y010976D01*
X010377Y010900D01*
X010377Y010593D01*
X010377Y010516D02*
X010223Y010669D01*
X010530Y010900D02*
X010607Y010976D01*
X010761Y010976D01*
X010837Y010900D01*
X010761Y010746D02*
X010684Y010746D01*
X007850Y012372D02*
X007543Y012372D01*
X007850Y012679D01*
X007850Y012756D01*
X007773Y012833D01*
X007619Y012833D01*
X007543Y012756D01*
X007389Y012756D02*
X007312Y012833D01*
X007082Y012833D01*
X007082Y012372D01*
X007312Y012372D01*
X007389Y012449D01*
X007389Y012756D01*
X007456Y013266D02*
X007226Y013496D01*
X007149Y013419D02*
X007456Y013726D01*
X007610Y013650D02*
X007686Y013726D01*
X007840Y013726D01*
X007917Y013650D01*
X007917Y013573D01*
X007610Y013266D01*
X007917Y013266D01*
X007149Y013266D02*
X007149Y013726D01*
X004684Y010976D02*
X004530Y010823D01*
X004377Y010900D02*
X004377Y010593D01*
X004300Y010516D01*
X004147Y010516D01*
X004070Y010593D01*
X004070Y010900D01*
X004147Y010976D01*
X004300Y010976D01*
X004377Y010900D01*
X004223Y010669D02*
X004377Y010516D01*
X004530Y010516D02*
X004837Y010516D01*
X004684Y010516D02*
X004684Y010976D01*
X016070Y010900D02*
X016070Y010593D01*
X016147Y010516D01*
X016300Y010516D01*
X016377Y010593D01*
X016377Y010900D01*
X016300Y010976D01*
X016147Y010976D01*
X016070Y010900D01*
X016223Y010669D02*
X016377Y010516D01*
X016530Y010593D02*
X016607Y010516D01*
X016761Y010516D01*
X016837Y010593D01*
X016837Y010746D01*
X016761Y010823D01*
X016684Y010823D01*
X016530Y010746D01*
X016530Y010976D01*
X016837Y010976D01*
X018070Y011093D02*
X018147Y011016D01*
X018300Y011016D01*
X018377Y011093D01*
X018377Y011246D01*
X018223Y011246D01*
X018070Y011093D02*
X018070Y011400D01*
X018147Y011476D01*
X018300Y011476D01*
X018377Y011400D01*
X018300Y010476D02*
X018070Y010476D01*
X018070Y010016D01*
X018070Y010169D02*
X018300Y010169D01*
X018377Y010246D01*
X018377Y010400D01*
X018300Y010476D01*
X018223Y010169D02*
X018377Y010016D01*
X018377Y009476D02*
X018070Y009476D01*
X018223Y009476D02*
X018223Y009016D01*
X018070Y008476D02*
X018070Y008169D01*
X018223Y008016D01*
X018377Y008169D01*
X018377Y008476D01*
X016773Y012372D02*
X016619Y012372D01*
X016543Y012449D01*
X016543Y012602D02*
X016696Y012679D01*
X016773Y012679D01*
X016850Y012602D01*
X016850Y012449D01*
X016773Y012372D01*
X016543Y012602D02*
X016543Y012833D01*
X016850Y012833D01*
X016840Y013266D02*
X016686Y013266D01*
X016610Y013343D01*
X016610Y013496D02*
X016763Y013573D01*
X016840Y013573D01*
X016917Y013496D01*
X016917Y013343D01*
X016840Y013266D01*
X016610Y013496D02*
X016610Y013726D01*
X016917Y013726D01*
X016456Y013726D02*
X016149Y013419D01*
X016226Y013496D02*
X016456Y013266D01*
X016149Y013266D02*
X016149Y013726D01*
X016082Y012833D02*
X016312Y012833D01*
X016389Y012756D01*
X016389Y012449D01*
X016312Y012372D01*
X016082Y012372D01*
X016082Y012833D01*
X018070Y013169D02*
X018223Y013016D01*
X018377Y013169D01*
X018377Y013476D01*
X018070Y013476D02*
X018070Y013169D01*
X018070Y014016D02*
X018070Y014476D01*
X018300Y014476D01*
X018377Y014400D01*
X018377Y014246D01*
X018300Y014169D01*
X018070Y014169D01*
X018223Y014169D02*
X018377Y014016D01*
X018223Y015016D02*
X018223Y015476D01*
X018070Y015476D02*
X018377Y015476D01*
X018300Y016016D02*
X018377Y016093D01*
X018377Y016246D01*
X018223Y016246D01*
X018070Y016093D02*
X018147Y016016D01*
X018300Y016016D01*
X018070Y016093D02*
X018070Y016400D01*
X018147Y016476D01*
X018300Y016476D01*
X018377Y016400D01*
D12*
X019795Y016416D02*
X019795Y016566D01*
X019870Y016641D01*
X019945Y016641D01*
X020020Y016566D01*
X020095Y016641D01*
X020170Y016641D01*
X020245Y016566D01*
X020245Y016416D01*
X020170Y016341D01*
X020020Y016491D02*
X020020Y016566D01*
X019870Y016341D02*
X019795Y016416D01*
X019870Y016180D02*
X019795Y016105D01*
X019795Y015880D01*
X020245Y015880D01*
X020095Y015880D02*
X020095Y016105D01*
X020020Y016180D01*
X019870Y016180D01*
X019795Y015720D02*
X019795Y015570D01*
X019795Y015645D02*
X020170Y015645D01*
X020245Y015570D01*
X020245Y015495D01*
X020170Y015420D01*
X020020Y011641D02*
X020020Y011341D01*
X019795Y011566D01*
X020245Y011566D01*
X020020Y011180D02*
X019870Y011180D01*
X019795Y011105D01*
X019795Y010880D01*
X020245Y010880D01*
X020095Y010880D02*
X020095Y011105D01*
X020020Y011180D01*
X019795Y010720D02*
X019795Y010570D01*
X019795Y010645D02*
X020170Y010645D01*
X020245Y010570D01*
X020245Y010495D01*
X020170Y010420D01*
X017110Y010006D02*
X017110Y009486D01*
X015990Y009486D01*
X015990Y010006D01*
X017110Y010006D01*
X014957Y007362D02*
X012143Y007362D01*
X012143Y005630D01*
X014957Y005630D01*
X014957Y007362D01*
X014780Y007224D02*
X014782Y007232D01*
X014787Y007239D01*
X014794Y007243D01*
X014802Y007244D01*
X014810Y007241D01*
X014816Y007236D01*
X014820Y007228D01*
X014820Y007220D01*
X014816Y007212D01*
X014810Y007207D01*
X014802Y007204D01*
X014794Y007205D01*
X014787Y007209D01*
X014782Y007216D01*
X014780Y007224D01*
X014110Y009486D02*
X012990Y009486D01*
X012990Y010006D01*
X014110Y010006D01*
X014110Y009486D01*
X011110Y009486D02*
X009990Y009486D01*
X009990Y010006D01*
X011110Y010006D01*
X011110Y009486D01*
X011036Y007021D02*
X010735Y007021D01*
X010575Y006946D02*
X010500Y007021D01*
X010350Y007021D01*
X010275Y006946D01*
X010275Y006646D01*
X010350Y006571D01*
X010500Y006571D01*
X010575Y006646D01*
X010735Y006646D02*
X010735Y006571D01*
X010735Y006646D02*
X011036Y006946D01*
X011036Y007021D01*
X008110Y009486D02*
X006990Y009486D01*
X006990Y010006D01*
X008110Y010006D01*
X008110Y009486D01*
X005110Y009486D02*
X003990Y009486D01*
X003990Y010006D01*
X005110Y010006D01*
X005110Y009486D01*
X001305Y012066D02*
X001305Y012141D01*
X001230Y012216D01*
X000855Y012216D01*
X000855Y012141D02*
X000855Y012291D01*
X000855Y012451D02*
X000855Y012677D01*
X000930Y012752D01*
X001080Y012752D01*
X001155Y012677D01*
X001155Y012451D01*
X001305Y012451D02*
X000855Y012451D01*
X001305Y012066D02*
X001230Y011991D01*
X001230Y012912D02*
X001305Y012987D01*
X001305Y013137D01*
X001230Y013212D01*
X001155Y013212D01*
X001080Y013137D01*
X001080Y012912D01*
X001230Y012912D01*
X001080Y012912D02*
X000930Y013062D01*
X000855Y013212D01*
X001230Y016741D02*
X001305Y016816D01*
X001305Y016891D01*
X001230Y016966D01*
X000855Y016966D01*
X000855Y016891D02*
X000855Y017041D01*
X000855Y017201D02*
X000855Y017427D01*
X000930Y017502D01*
X001080Y017502D01*
X001155Y017427D01*
X001155Y017201D01*
X001305Y017201D02*
X000855Y017201D01*
X000855Y017662D02*
X000855Y017962D01*
X000930Y017962D01*
X001230Y017662D01*
X001305Y017662D01*
X003150Y020021D02*
X003075Y020096D01*
X003150Y020021D02*
X003225Y020021D01*
X003300Y020096D01*
X003300Y020471D01*
X003225Y020471D02*
X003375Y020471D01*
X003535Y020471D02*
X003761Y020471D01*
X003836Y020396D01*
X003836Y020246D01*
X003761Y020171D01*
X003535Y020171D01*
X003535Y020021D02*
X003535Y020471D01*
X003996Y020471D02*
X003996Y020246D01*
X004146Y020321D01*
X004221Y020321D01*
X004296Y020246D01*
X004296Y020096D01*
X004221Y020021D01*
X004071Y020021D01*
X003996Y020096D01*
X003996Y020471D02*
X004296Y020471D01*
X019795Y006566D02*
X019795Y006416D01*
X019870Y006341D01*
X019870Y006180D02*
X019795Y006105D01*
X019795Y005880D01*
X020245Y005880D01*
X020095Y005880D02*
X020095Y006105D01*
X020020Y006180D01*
X019870Y006180D01*
X019795Y006566D02*
X019870Y006641D01*
X019945Y006641D01*
X020245Y006341D01*
X020245Y006641D01*
X020170Y005645D02*
X019795Y005645D01*
X019795Y005570D02*
X019795Y005720D01*
X020170Y005645D02*
X020245Y005570D01*
X020245Y005495D01*
X020170Y005420D01*
X008719Y001600D02*
X007381Y001600D01*
X007420Y001561D02*
X008428Y001561D01*
X008428Y000931D01*
X007420Y000931D01*
X007420Y001561D01*
X007381Y000892D02*
X008719Y000892D01*
X008680Y000931D02*
X008428Y000931D01*
X008384Y000742D02*
X008309Y000667D01*
X008384Y000742D02*
X008534Y000742D01*
X008609Y000667D01*
X008609Y000592D01*
X008534Y000517D01*
X008609Y000442D01*
X008609Y000367D01*
X008534Y000292D01*
X008384Y000292D01*
X008309Y000367D01*
X008149Y000367D02*
X008074Y000292D01*
X007924Y000292D01*
X007849Y000367D01*
X007849Y000667D01*
X007924Y000742D01*
X008074Y000742D01*
X008149Y000667D01*
X008459Y000517D02*
X008534Y000517D01*
X008680Y000931D02*
X008680Y001561D01*
X008428Y001561D01*
X006550Y000746D02*
X006550Y000346D01*
X002550Y000346D01*
X002550Y000746D01*
X006550Y000746D01*
X006550Y003746D01*
X002550Y003746D01*
X002550Y000746D01*
X002550Y000346D02*
X002550Y000246D01*
X006550Y000246D01*
X006550Y000346D01*
X004950Y001746D02*
X004952Y001795D01*
X004958Y001843D01*
X004968Y001891D01*
X004982Y001938D01*
X004999Y001984D01*
X005020Y002028D01*
X005045Y002070D01*
X005073Y002110D01*
X005105Y002148D01*
X005139Y002183D01*
X005176Y002215D01*
X005215Y002244D01*
X005257Y002270D01*
X005301Y002292D01*
X005346Y002310D01*
X005393Y002325D01*
X005440Y002336D01*
X005489Y002343D01*
X005538Y002346D01*
X005587Y002345D01*
X005635Y002340D01*
X005684Y002331D01*
X005731Y002318D01*
X005777Y002301D01*
X005821Y002281D01*
X005864Y002257D01*
X005905Y002230D01*
X005943Y002199D01*
X005979Y002166D01*
X006011Y002130D01*
X006041Y002091D01*
X006068Y002050D01*
X006091Y002006D01*
X006110Y001961D01*
X006126Y001915D01*
X006138Y001868D01*
X006146Y001819D01*
X006150Y001770D01*
X006150Y001722D01*
X006146Y001673D01*
X006138Y001624D01*
X006126Y001577D01*
X006110Y001531D01*
X006091Y001486D01*
X006068Y001442D01*
X006041Y001401D01*
X006011Y001362D01*
X005979Y001326D01*
X005943Y001293D01*
X005905Y001262D01*
X005864Y001235D01*
X005821Y001211D01*
X005777Y001191D01*
X005731Y001174D01*
X005684Y001161D01*
X005635Y001152D01*
X005587Y001147D01*
X005538Y001146D01*
X005489Y001149D01*
X005440Y001156D01*
X005393Y001167D01*
X005346Y001182D01*
X005301Y001200D01*
X005257Y001222D01*
X005215Y001248D01*
X005176Y001277D01*
X005139Y001309D01*
X005105Y001344D01*
X005073Y001382D01*
X005045Y001422D01*
X005020Y001464D01*
X004999Y001508D01*
X004982Y001554D01*
X004968Y001601D01*
X004958Y001649D01*
X004952Y001697D01*
X004950Y001746D01*
X005150Y002846D02*
X005950Y002846D01*
X006300Y002946D02*
X006550Y002996D01*
X006300Y002946D02*
X006300Y003546D01*
X006550Y003496D01*
X005950Y002846D02*
X005953Y002885D01*
X005952Y002924D01*
X005947Y002963D01*
X005939Y003001D01*
X005927Y003038D01*
X005912Y003074D01*
X005893Y003108D01*
X005871Y003140D01*
X005846Y003170D01*
X005818Y003197D01*
X005787Y003222D01*
X005755Y003243D01*
X005720Y003261D01*
X005684Y003276D01*
X005647Y003287D01*
X005608Y003295D01*
X005570Y003299D01*
X005530Y003299D01*
X005492Y003295D01*
X005453Y003287D01*
X005416Y003276D01*
X005380Y003261D01*
X005345Y003243D01*
X005313Y003222D01*
X005282Y003197D01*
X005254Y003170D01*
X005229Y003140D01*
X005207Y003108D01*
X005188Y003074D01*
X005173Y003038D01*
X005161Y003001D01*
X005153Y002963D01*
X005148Y002924D01*
X005147Y002885D01*
X005150Y002846D01*
X003950Y002846D02*
X003150Y002846D01*
X003147Y002885D01*
X003148Y002924D01*
X003153Y002963D01*
X003161Y003001D01*
X003173Y003038D01*
X003188Y003074D01*
X003207Y003108D01*
X003229Y003140D01*
X003254Y003170D01*
X003282Y003197D01*
X003313Y003222D01*
X003345Y003243D01*
X003380Y003261D01*
X003416Y003276D01*
X003453Y003287D01*
X003492Y003295D01*
X003530Y003299D01*
X003570Y003299D01*
X003608Y003295D01*
X003647Y003287D01*
X003684Y003276D01*
X003720Y003261D01*
X003755Y003243D01*
X003787Y003222D01*
X003818Y003197D01*
X003846Y003170D01*
X003871Y003140D01*
X003893Y003108D01*
X003912Y003074D01*
X003927Y003038D01*
X003939Y003001D01*
X003947Y002963D01*
X003952Y002924D01*
X003953Y002885D01*
X003950Y002846D01*
X002950Y001746D02*
X002952Y001795D01*
X002958Y001843D01*
X002968Y001891D01*
X002982Y001938D01*
X002999Y001984D01*
X003020Y002028D01*
X003045Y002070D01*
X003073Y002110D01*
X003105Y002148D01*
X003139Y002183D01*
X003176Y002215D01*
X003215Y002244D01*
X003257Y002270D01*
X003301Y002292D01*
X003346Y002310D01*
X003393Y002325D01*
X003440Y002336D01*
X003489Y002343D01*
X003538Y002346D01*
X003587Y002345D01*
X003635Y002340D01*
X003684Y002331D01*
X003731Y002318D01*
X003777Y002301D01*
X003821Y002281D01*
X003864Y002257D01*
X003905Y002230D01*
X003943Y002199D01*
X003979Y002166D01*
X004011Y002130D01*
X004041Y002091D01*
X004068Y002050D01*
X004091Y002006D01*
X004110Y001961D01*
X004126Y001915D01*
X004138Y001868D01*
X004146Y001819D01*
X004150Y001770D01*
X004150Y001722D01*
X004146Y001673D01*
X004138Y001624D01*
X004126Y001577D01*
X004110Y001531D01*
X004091Y001486D01*
X004068Y001442D01*
X004041Y001401D01*
X004011Y001362D01*
X003979Y001326D01*
X003943Y001293D01*
X003905Y001262D01*
X003864Y001235D01*
X003821Y001211D01*
X003777Y001191D01*
X003731Y001174D01*
X003684Y001161D01*
X003635Y001152D01*
X003587Y001147D01*
X003538Y001146D01*
X003489Y001149D01*
X003440Y001156D01*
X003393Y001167D01*
X003346Y001182D01*
X003301Y001200D01*
X003257Y001222D01*
X003215Y001248D01*
X003176Y001277D01*
X003139Y001309D01*
X003105Y001344D01*
X003073Y001382D01*
X003045Y001422D01*
X003020Y001464D01*
X002999Y001508D01*
X002982Y001554D01*
X002968Y001601D01*
X002958Y001649D01*
X002952Y001697D01*
X002950Y001746D01*
X002550Y002996D02*
X002300Y002946D01*
X002300Y003546D01*
X002550Y003496D01*
X003029Y004221D02*
X003179Y004221D01*
X003254Y004296D01*
X003415Y004221D02*
X003715Y004221D01*
X003565Y004221D02*
X003565Y004671D01*
X003415Y004521D01*
X003254Y004596D02*
X003179Y004671D01*
X003029Y004671D01*
X002954Y004596D01*
X002954Y004296D01*
X003029Y004221D01*
X001245Y002566D02*
X001245Y002416D01*
X001170Y002341D01*
X001095Y002341D01*
X001020Y002416D01*
X001020Y002566D01*
X001095Y002641D01*
X001170Y002641D01*
X001245Y002566D01*
X001020Y002566D02*
X000945Y002641D01*
X000870Y002641D01*
X000795Y002566D01*
X000795Y002416D01*
X000870Y002341D01*
X000945Y002341D01*
X001020Y002416D01*
X001020Y002180D02*
X001095Y002105D01*
X001095Y001880D01*
X001245Y001880D02*
X000795Y001880D01*
X000795Y002105D01*
X000870Y002180D01*
X001020Y002180D01*
X000795Y001720D02*
X000795Y001570D01*
X000795Y001645D02*
X001170Y001645D01*
X001245Y001570D01*
X001245Y001495D01*
X001170Y001420D01*
D13*
X001991Y007010D03*
X001991Y007482D03*
D14*
X001991Y007246D03*
D15*
X001755Y007246D03*
X002345Y007246D03*
D16*
X001981Y007556D03*
X001981Y006936D03*
D17*
X002773Y007246D03*
D18*
X001263Y007246D03*
D19*
X001889Y005996D02*
X002211Y005996D01*
X002211Y005496D02*
X001889Y005496D01*
X001800Y004746D02*
X001300Y004746D01*
X001050Y004496D01*
X001050Y003996D01*
X001300Y003746D01*
X001050Y003496D01*
X001050Y002996D01*
X001300Y002746D01*
X001800Y002746D01*
X002050Y002996D01*
X002050Y003496D01*
X001800Y003746D01*
X001300Y003746D01*
X001800Y003746D02*
X002050Y003996D01*
X002050Y004496D01*
X001800Y004746D01*
X003900Y005996D02*
X004300Y005996D01*
X003200Y005996D02*
X003202Y006069D01*
X003208Y006142D01*
X003218Y006214D01*
X003232Y006286D01*
X003249Y006357D01*
X003271Y006427D01*
X003296Y006496D01*
X003325Y006563D01*
X003357Y006628D01*
X003393Y006692D01*
X003433Y006754D01*
X003475Y006813D01*
X003521Y006870D01*
X003570Y006924D01*
X003622Y006976D01*
X003676Y007025D01*
X003733Y007071D01*
X003792Y007113D01*
X003854Y007153D01*
X003918Y007189D01*
X003983Y007221D01*
X004050Y007250D01*
X004119Y007275D01*
X004189Y007297D01*
X004260Y007314D01*
X004332Y007328D01*
X004404Y007338D01*
X004477Y007344D01*
X004550Y007346D01*
X004623Y007344D01*
X004696Y007338D01*
X004768Y007328D01*
X004840Y007314D01*
X004911Y007297D01*
X004981Y007275D01*
X005050Y007250D01*
X005117Y007221D01*
X005182Y007189D01*
X005246Y007153D01*
X005308Y007113D01*
X005367Y007071D01*
X005424Y007025D01*
X005478Y006976D01*
X005530Y006924D01*
X005579Y006870D01*
X005625Y006813D01*
X005667Y006754D01*
X005707Y006692D01*
X005743Y006628D01*
X005775Y006563D01*
X005804Y006496D01*
X005829Y006427D01*
X005851Y006357D01*
X005868Y006286D01*
X005882Y006214D01*
X005892Y006142D01*
X005898Y006069D01*
X005900Y005996D01*
X005898Y005923D01*
X005892Y005850D01*
X005882Y005778D01*
X005868Y005706D01*
X005851Y005635D01*
X005829Y005565D01*
X005804Y005496D01*
X005775Y005429D01*
X005743Y005364D01*
X005707Y005300D01*
X005667Y005238D01*
X005625Y005179D01*
X005579Y005122D01*
X005530Y005068D01*
X005478Y005016D01*
X005424Y004967D01*
X005367Y004921D01*
X005308Y004879D01*
X005246Y004839D01*
X005182Y004803D01*
X005117Y004771D01*
X005050Y004742D01*
X004981Y004717D01*
X004911Y004695D01*
X004840Y004678D01*
X004768Y004664D01*
X004696Y004654D01*
X004623Y004648D01*
X004550Y004646D01*
X004477Y004648D01*
X004404Y004654D01*
X004332Y004664D01*
X004260Y004678D01*
X004189Y004695D01*
X004119Y004717D01*
X004050Y004742D01*
X003983Y004771D01*
X003918Y004803D01*
X003854Y004839D01*
X003792Y004879D01*
X003733Y004921D01*
X003676Y004967D01*
X003622Y005016D01*
X003570Y005068D01*
X003521Y005122D01*
X003475Y005179D01*
X003433Y005238D01*
X003393Y005300D01*
X003357Y005364D01*
X003325Y005429D01*
X003296Y005496D01*
X003271Y005565D01*
X003249Y005635D01*
X003232Y005706D01*
X003218Y005778D01*
X003208Y005850D01*
X003202Y005923D01*
X003200Y005996D01*
X004650Y006496D02*
X004650Y005496D01*
X004850Y005496D01*
X004850Y005996D01*
X004850Y006496D01*
X004650Y006496D01*
X004850Y005996D02*
X005200Y005996D01*
X005450Y005996D02*
X005750Y005996D01*
X005600Y006146D02*
X005600Y005846D01*
X007889Y005996D02*
X008211Y005996D01*
X008211Y006496D02*
X007889Y006496D01*
X007889Y007496D02*
X008211Y007496D01*
X008211Y007996D02*
X007889Y007996D01*
X008800Y009585D02*
X008800Y009907D01*
X009300Y009907D02*
X009300Y009585D01*
X011800Y009585D02*
X011800Y009907D01*
X012300Y009907D02*
X012300Y009585D01*
X014800Y009585D02*
X014800Y009907D01*
X015300Y009907D02*
X015300Y009585D01*
X016800Y007507D02*
X016800Y007185D01*
X017300Y007185D02*
X017300Y007507D01*
X015211Y003496D02*
X014889Y003496D01*
X014889Y002996D02*
X015211Y002996D01*
X015211Y002496D02*
X014889Y002496D01*
X014889Y001996D02*
X015211Y001996D01*
X015211Y001496D02*
X014889Y001496D01*
X014889Y000996D02*
X015211Y000996D01*
X016889Y000996D02*
X017211Y000996D01*
X017211Y001496D02*
X016889Y001496D01*
X012711Y001996D02*
X012389Y001996D01*
X012389Y002496D02*
X012711Y002496D01*
X012711Y002996D02*
X012389Y002996D01*
X012389Y003496D02*
X012711Y003496D01*
X011200Y005246D02*
X010800Y005246D01*
X009200Y005246D02*
X009202Y005319D01*
X009208Y005392D01*
X009218Y005464D01*
X009232Y005536D01*
X009249Y005607D01*
X009271Y005677D01*
X009296Y005746D01*
X009325Y005813D01*
X009357Y005878D01*
X009393Y005942D01*
X009433Y006004D01*
X009475Y006063D01*
X009521Y006120D01*
X009570Y006174D01*
X009622Y006226D01*
X009676Y006275D01*
X009733Y006321D01*
X009792Y006363D01*
X009854Y006403D01*
X009918Y006439D01*
X009983Y006471D01*
X010050Y006500D01*
X010119Y006525D01*
X010189Y006547D01*
X010260Y006564D01*
X010332Y006578D01*
X010404Y006588D01*
X010477Y006594D01*
X010550Y006596D01*
X010623Y006594D01*
X010696Y006588D01*
X010768Y006578D01*
X010840Y006564D01*
X010911Y006547D01*
X010981Y006525D01*
X011050Y006500D01*
X011117Y006471D01*
X011182Y006439D01*
X011246Y006403D01*
X011308Y006363D01*
X011367Y006321D01*
X011424Y006275D01*
X011478Y006226D01*
X011530Y006174D01*
X011579Y006120D01*
X011625Y006063D01*
X011667Y006004D01*
X011707Y005942D01*
X011743Y005878D01*
X011775Y005813D01*
X011804Y005746D01*
X011829Y005677D01*
X011851Y005607D01*
X011868Y005536D01*
X011882Y005464D01*
X011892Y005392D01*
X011898Y005319D01*
X011900Y005246D01*
X011898Y005173D01*
X011892Y005100D01*
X011882Y005028D01*
X011868Y004956D01*
X011851Y004885D01*
X011829Y004815D01*
X011804Y004746D01*
X011775Y004679D01*
X011743Y004614D01*
X011707Y004550D01*
X011667Y004488D01*
X011625Y004429D01*
X011579Y004372D01*
X011530Y004318D01*
X011478Y004266D01*
X011424Y004217D01*
X011367Y004171D01*
X011308Y004129D01*
X011246Y004089D01*
X011182Y004053D01*
X011117Y004021D01*
X011050Y003992D01*
X010981Y003967D01*
X010911Y003945D01*
X010840Y003928D01*
X010768Y003914D01*
X010696Y003904D01*
X010623Y003898D01*
X010550Y003896D01*
X010477Y003898D01*
X010404Y003904D01*
X010332Y003914D01*
X010260Y003928D01*
X010189Y003945D01*
X010119Y003967D01*
X010050Y003992D01*
X009983Y004021D01*
X009918Y004053D01*
X009854Y004089D01*
X009792Y004129D01*
X009733Y004171D01*
X009676Y004217D01*
X009622Y004266D01*
X009570Y004318D01*
X009521Y004372D01*
X009475Y004429D01*
X009433Y004488D01*
X009393Y004550D01*
X009357Y004614D01*
X009325Y004679D01*
X009296Y004746D01*
X009271Y004815D01*
X009249Y004885D01*
X009232Y004956D01*
X009218Y005028D01*
X009208Y005100D01*
X009202Y005173D01*
X009200Y005246D01*
X009350Y005246D02*
X009650Y005246D01*
X009500Y005096D02*
X009500Y005396D01*
X009900Y005246D02*
X010250Y005246D01*
X010250Y005746D01*
X010450Y005746D01*
X010450Y004746D01*
X010250Y004746D01*
X010250Y005246D01*
X006300Y009585D02*
X006300Y009907D01*
X005800Y009907D02*
X005800Y009585D01*
X003300Y009585D02*
X003300Y009907D01*
X002800Y009907D02*
X002800Y009585D01*
X002050Y009496D02*
X002050Y008996D01*
X001800Y008746D01*
X001300Y008746D01*
X001050Y008996D01*
X001050Y009496D01*
X001300Y009746D01*
X001050Y009996D01*
X001050Y010496D01*
X001300Y010746D01*
X001050Y010996D01*
X001050Y011496D01*
X001300Y011746D01*
X001800Y011746D01*
X002050Y011496D01*
X002050Y010996D01*
X001800Y010746D01*
X002050Y010496D01*
X002050Y009996D01*
X001800Y009746D01*
X002050Y009496D01*
X001800Y009746D02*
X001300Y009746D01*
X001300Y010746D02*
X001800Y010746D01*
X001800Y013746D02*
X001300Y013746D01*
X001050Y013996D01*
X001050Y014496D01*
X001300Y014746D01*
X001050Y014996D01*
X001050Y015496D01*
X001300Y015746D01*
X001050Y015996D01*
X001050Y016496D01*
X001300Y016746D01*
X001800Y016746D01*
X002050Y016496D01*
X002050Y015996D01*
X001800Y015746D01*
X002050Y015496D01*
X002050Y014996D01*
X001800Y014746D01*
X002050Y014496D01*
X002050Y013996D01*
X001800Y013746D01*
X001800Y014746D02*
X001300Y014746D01*
X001300Y015746D02*
X001800Y015746D01*
X003300Y017746D02*
X003800Y017746D01*
X004050Y017996D01*
X004050Y019496D01*
X004300Y019746D01*
X004800Y019746D01*
X005050Y019496D01*
X005050Y017996D01*
X005300Y017746D01*
X005800Y017746D01*
X006050Y017996D01*
X006050Y019496D01*
X006300Y019746D01*
X006800Y019746D01*
X007050Y019496D01*
X007050Y017996D01*
X007300Y017746D01*
X007800Y017746D01*
X008050Y017996D01*
X008050Y019496D01*
X008300Y019746D01*
X008800Y019746D01*
X009050Y019496D01*
X009050Y017996D01*
X009300Y017746D01*
X009800Y017746D01*
X010050Y017996D01*
X010050Y019496D01*
X010300Y019746D01*
X010800Y019746D01*
X011050Y019496D01*
X011050Y017996D01*
X010800Y017746D01*
X010300Y017746D01*
X010050Y017996D01*
X009050Y017996D02*
X008800Y017746D01*
X008300Y017746D01*
X008050Y017996D01*
X007050Y017996D02*
X006800Y017746D01*
X006300Y017746D01*
X006050Y017996D01*
X005050Y017996D02*
X004800Y017746D01*
X004300Y017746D01*
X004050Y017996D01*
X003300Y017746D02*
X003050Y017996D01*
X003050Y019496D01*
X003300Y019746D01*
X003800Y019746D01*
X004050Y019496D01*
X005050Y019496D02*
X005300Y019746D01*
X005800Y019746D01*
X006050Y019496D01*
X007050Y019496D02*
X007300Y019746D01*
X007800Y019746D01*
X008050Y019496D01*
X009050Y019496D02*
X009300Y019746D01*
X009800Y019746D01*
X010050Y019496D01*
X011050Y019496D02*
X011300Y019746D01*
X011800Y019746D01*
X012050Y019496D01*
X012050Y017996D01*
X011800Y017746D01*
X011300Y017746D01*
X011050Y017996D01*
X012050Y017996D02*
X012300Y017746D01*
X012800Y017746D01*
X013050Y017996D01*
X013050Y019496D01*
X013300Y019746D01*
X013800Y019746D01*
X014050Y019496D01*
X014050Y017996D01*
X013800Y017746D01*
X013300Y017746D01*
X013050Y017996D01*
X014050Y017996D02*
X014300Y017746D01*
X014800Y017746D01*
X015050Y017996D01*
X015050Y019496D01*
X015300Y019746D01*
X015800Y019746D01*
X016050Y019496D01*
X016050Y017996D01*
X015800Y017746D01*
X015300Y017746D01*
X015050Y017996D01*
X016050Y017996D02*
X016300Y017746D01*
X016800Y017746D01*
X017050Y017996D01*
X017050Y019496D01*
X017300Y019746D01*
X017800Y019746D01*
X018050Y019496D01*
X018050Y017996D01*
X017800Y017746D01*
X017300Y017746D01*
X017050Y017996D01*
X017050Y019496D02*
X016800Y019746D01*
X016300Y019746D01*
X016050Y019496D01*
X015050Y019496D02*
X014800Y019746D01*
X014300Y019746D01*
X014050Y019496D01*
X013050Y019496D02*
X012800Y019746D01*
X012300Y019746D01*
X012050Y019496D01*
D20*
X011663Y010523D02*
X012437Y010523D01*
X012437Y008969D01*
X011663Y008969D01*
X011663Y010523D01*
X009437Y010523D02*
X009437Y008969D01*
X008663Y008969D01*
X008663Y010523D01*
X009437Y010523D01*
X008827Y008133D02*
X007273Y008133D01*
X007273Y007359D01*
X008827Y007359D01*
X008827Y008133D01*
X008827Y006633D02*
X007273Y006633D01*
X007273Y005859D01*
X008827Y005859D01*
X008827Y006633D01*
X006437Y008969D02*
X005663Y008969D01*
X005663Y010523D01*
X006437Y010523D01*
X006437Y008969D01*
X003437Y008969D02*
X002663Y008969D01*
X002663Y010523D01*
X003437Y010523D01*
X003437Y008969D01*
X002827Y006133D02*
X001273Y006133D01*
X001273Y005359D01*
X002827Y005359D01*
X002827Y006133D01*
X009773Y003633D02*
X009773Y002859D01*
X011327Y002859D01*
X011327Y003633D01*
X009773Y003633D01*
X009773Y002633D02*
X009773Y001859D01*
X011327Y001859D01*
X011327Y002633D01*
X009773Y002633D01*
X011773Y002633D02*
X011773Y001859D01*
X013327Y001859D01*
X013327Y002633D01*
X011773Y002633D01*
X011773Y002859D02*
X011773Y003633D01*
X013327Y003633D01*
X013327Y002859D01*
X011773Y002859D01*
X014273Y002859D02*
X014273Y003633D01*
X015827Y003633D01*
X015827Y002859D01*
X014273Y002859D01*
X014273Y002633D02*
X015827Y002633D01*
X015827Y001859D01*
X014273Y001859D01*
X014273Y002633D01*
X014273Y001633D02*
X015827Y001633D01*
X015827Y000859D01*
X014273Y000859D01*
X014273Y001633D01*
X016273Y001633D02*
X016273Y000859D01*
X017827Y000859D01*
X017827Y001633D01*
X016273Y001633D01*
X016273Y001859D02*
X016273Y002633D01*
X017827Y002633D01*
X017827Y001859D01*
X016273Y001859D01*
X016273Y002859D02*
X016273Y003633D01*
X017827Y003633D01*
X017827Y002859D01*
X016273Y002859D01*
X016663Y004869D02*
X017437Y004869D01*
X017437Y006423D01*
X016663Y006423D01*
X016663Y004869D01*
X015937Y005719D02*
X015163Y005719D01*
X015163Y007273D01*
X015937Y007273D01*
X015937Y005719D01*
X016663Y006569D02*
X017437Y006569D01*
X017437Y008123D01*
X016663Y008123D01*
X016663Y006569D01*
X015437Y008969D02*
X014663Y008969D01*
X014663Y010523D01*
X015437Y010523D01*
X015437Y008969D01*
D21*
X015338Y003247D03*
X014758Y003247D03*
X014762Y002245D03*
X015342Y002245D03*
X015342Y001245D03*
X014762Y001245D03*
X012842Y002245D03*
X012262Y002245D03*
X012258Y003247D03*
X012838Y003247D03*
X016762Y001245D03*
X017342Y001245D03*
X008342Y006245D03*
X007762Y006245D03*
X007762Y007745D03*
X008342Y007745D03*
X002342Y005745D03*
X001762Y005745D03*
D22*
X015550Y006208D03*
X015550Y006778D03*
X017050Y005928D03*
X017050Y005358D03*
D23*
X017049Y007054D03*
X017049Y007634D03*
X015049Y009454D03*
X015049Y010034D03*
X012049Y010034D03*
X012049Y009454D03*
X009049Y009454D03*
X009049Y010034D03*
X006049Y010034D03*
X006049Y009454D03*
X003049Y009454D03*
X003049Y010034D03*
D24*
X003133Y011833D02*
X005967Y011833D01*
X005967Y017659D01*
X003133Y017659D01*
X003133Y011833D01*
X006133Y011833D02*
X008967Y011833D01*
X008967Y017659D01*
X006133Y017659D01*
X006133Y011833D01*
X009133Y011833D02*
X011967Y011833D01*
X011967Y017659D01*
X009133Y017659D01*
X009133Y011833D01*
X012133Y011833D02*
X014967Y011833D01*
X014967Y017659D01*
X012133Y017659D01*
X012133Y011833D01*
X015133Y011833D02*
X017967Y011833D01*
X017967Y017659D01*
X015133Y017659D01*
X015133Y011833D01*
X018550Y011496D02*
X018550Y010996D01*
X018800Y010746D01*
X018550Y010496D01*
X018550Y009996D01*
X018800Y009746D01*
X018550Y009496D01*
X018550Y008996D01*
X018800Y008746D01*
X018550Y008496D01*
X018550Y007996D01*
X018800Y007746D01*
X019300Y007746D01*
X019550Y007996D01*
X019550Y008496D01*
X019300Y008746D01*
X019550Y008996D01*
X019550Y009496D01*
X019300Y009746D01*
X019550Y009996D01*
X019550Y010496D01*
X019300Y010746D01*
X019550Y010996D01*
X019550Y011496D01*
X019300Y011746D01*
X018800Y011746D01*
X018550Y011496D01*
X018800Y012746D02*
X019300Y012746D01*
X019550Y012996D01*
X019550Y013496D01*
X019300Y013746D01*
X019550Y013996D01*
X019550Y014496D01*
X019300Y014746D01*
X019550Y014996D01*
X019550Y015496D01*
X019300Y015746D01*
X019550Y015996D01*
X019550Y016496D01*
X019300Y016746D01*
X018800Y016746D01*
X018550Y016496D01*
X018550Y015996D01*
X018800Y015746D01*
X018550Y015496D01*
X018550Y014996D01*
X018800Y014746D01*
X018550Y014496D01*
X018550Y013996D01*
X018800Y013746D01*
X018550Y013496D01*
X018550Y012996D01*
X018800Y012746D01*
X018800Y006746D02*
X018550Y006496D01*
X018550Y005996D01*
X018800Y005746D01*
X018550Y005496D01*
X018550Y004996D01*
X018800Y004746D01*
X018550Y004496D01*
X018550Y003996D01*
X018800Y003746D01*
X018550Y003496D01*
X018550Y002996D01*
X018800Y002746D01*
X019300Y002746D01*
X019550Y002996D01*
X019550Y003496D01*
X019300Y003746D01*
X019550Y003996D01*
X019550Y004496D01*
X019300Y004746D01*
X019550Y004996D01*
X019550Y005496D01*
X019300Y005746D01*
X019550Y005996D01*
X019550Y006496D01*
X019300Y006746D01*
X018800Y006746D01*
D25*
X019050Y006246D03*
X019050Y005246D03*
X019050Y004246D03*
X019050Y003246D03*
X019050Y008246D03*
X019050Y009246D03*
X019050Y010246D03*
X019050Y011246D03*
X019050Y013246D03*
X019050Y014246D03*
X019050Y015246D03*
X019050Y016246D03*
X017550Y018246D03*
X017550Y019246D03*
X016550Y019246D03*
X015550Y019246D03*
X014550Y019246D03*
X013550Y019246D03*
X012550Y019246D03*
X011550Y019246D03*
X010550Y019246D03*
X009550Y019246D03*
X008550Y019246D03*
X007550Y019246D03*
X006550Y019246D03*
X005550Y019246D03*
X004550Y019246D03*
X003550Y019246D03*
X003550Y018246D03*
X004550Y018246D03*
X005550Y018246D03*
X006550Y018246D03*
X007550Y018246D03*
X008550Y018246D03*
X009550Y018246D03*
X010550Y018246D03*
X011550Y018246D03*
X012550Y018246D03*
X013550Y018246D03*
X014550Y018246D03*
X015550Y018246D03*
X016550Y018246D03*
X001550Y016246D03*
X001550Y015246D03*
X001550Y014246D03*
X001550Y011246D03*
X001550Y010246D03*
X001550Y009246D03*
X001550Y004246D03*
X001550Y003246D03*
D26*
X004350Y005996D03*
X010750Y005246D03*
D27*
X008610Y003565D02*
X008573Y003565D01*
X008610Y003565D02*
X008610Y002927D01*
X008573Y002927D01*
X008610Y002927D02*
X007490Y002927D01*
X007527Y002927D01*
X007490Y002927D02*
X007490Y003565D01*
X007527Y003565D01*
X007490Y003565D02*
X008610Y003565D01*
X008256Y003565D02*
X008218Y003565D01*
X007882Y003565D02*
X007844Y003565D01*
X007844Y002927D02*
X008256Y002927D01*
D28*
X008424Y002783D03*
X007676Y002783D03*
X007676Y003709D03*
X008050Y003709D03*
X008424Y003709D03*
D29*
X008943Y000802D03*
D30*
X008730Y001246D03*
X007370Y001246D03*
D31*
X007550Y012121D03*
X010550Y012121D03*
X013550Y012121D03*
X016550Y012121D03*
X004550Y012121D03*
D32*
X010268Y003246D03*
X010838Y003246D03*
X010838Y002246D03*
X010268Y002246D03*
X016762Y002246D03*
X017332Y002246D03*
X017332Y003246D03*
X016762Y003246D03*
D33*
X016920Y009351D03*
X016550Y010141D03*
X016180Y009351D03*
X013920Y009351D03*
X013180Y009351D03*
X013550Y010141D03*
X010920Y009351D03*
X010550Y010141D03*
X010180Y009351D03*
X007920Y009351D03*
X007550Y010141D03*
X007180Y009351D03*
X004920Y009351D03*
X004180Y009351D03*
X004550Y010141D03*
D34*
X004117Y010970D02*
X004117Y011522D01*
X004983Y011522D01*
X004983Y010970D01*
X004117Y010970D01*
X007117Y010970D02*
X007117Y011522D01*
X007983Y011522D01*
X007983Y010970D01*
X007117Y010970D01*
X010117Y010970D02*
X010117Y011522D01*
X010983Y011522D01*
X010983Y010970D01*
X010117Y010970D01*
X013117Y010970D02*
X013117Y011522D01*
X013983Y011522D01*
X013983Y010970D01*
X013117Y010970D01*
X016117Y010970D02*
X016117Y011522D01*
X016983Y011522D01*
X016983Y010970D01*
X016117Y010970D01*
D35*
X015930Y011256D03*
X017170Y011256D03*
X014170Y011256D03*
X012930Y011256D03*
X011170Y011256D03*
X009930Y011256D03*
X008170Y011256D03*
X006930Y011256D03*
X005170Y011256D03*
X003930Y011256D03*
D36*
X004786Y011236D03*
X007786Y011236D03*
X010786Y011236D03*
X013786Y011236D03*
X016786Y011236D03*
M02*
