%
M48
M72
T01C0.0236
T02C0.0320
T03C0.0394
T04C0.0400
T05C0.0433
T06C0.1260
%
T01
X5300Y10496
X5050Y8496
X8300Y10496
X11300Y10496
X11300Y8246
X13050Y6996
X13800Y6496
X14300Y5996
X14550Y6996
X15800Y7996
X16300Y6496
X16050Y4496
X16050Y2746
X18050Y1246
X14050Y2746
X12550Y1246
X11550Y2746
X9550Y1746
X9050Y3246
X9550Y4246
X7050Y2246
X6550Y3246
X6050Y4746
X4050Y4746
X4050Y3746
X4550Y746
X6550Y746
X14300Y10496
X17300Y10496
T02
X4050Y5996
X5050Y5996
X10050Y5246
X11050Y5246
T03
X3550Y16746
X3550Y15746
X3550Y14746
X5550Y14746
X5550Y15746
X5550Y16746
X6550Y16746
X6550Y15746
X6550Y14746
X8550Y14746
X8550Y15746
X9550Y15746
X9550Y14746
X9550Y16746
X8550Y16746
X11550Y16746
X12550Y16746
X12550Y15746
X12550Y14746
X11550Y14746
X11550Y15746
X14550Y15746
X14550Y14746
X15550Y14746
X15550Y15746
X15550Y16746
X14550Y16746
X17550Y16746
X17550Y15746
X17550Y14746
X17550Y12746
X15550Y12746
X14550Y12746
X12550Y12746
X11550Y12746
X9550Y12746
X8550Y12746
X6550Y12746
X5550Y12746
X3550Y12746
X1550Y4246
X1550Y3246
T04
X3550Y19246
X4550Y19246
X5550Y19246
X6550Y19246
X7550Y19246
X8550Y19246
X9550Y19246
X10550Y19246
X11550Y19246
X12550Y19246
X13550Y19246
X14550Y19246
X15550Y19246
X16550Y19246
X17550Y19246
X17550Y18246
X16550Y18246
X15550Y18246
X14550Y18246
X13550Y18246
X12550Y18246
X11550Y18246
X10550Y18246
X9550Y18246
X8550Y18246
X7550Y18246
X6550Y18246
X5550Y18246
X4550Y18246
X3550Y18246
X1550Y16246
X1550Y15246
X1550Y14246
X1550Y11246
X1550Y10246
X1550Y9246
X19050Y3246
X19050Y4246
X19050Y5246
X19050Y6246
X19050Y8246
X19050Y9246
X19050Y10246
X19050Y11246
X19050Y13246
X19050Y14246
X19050Y15246
X19050Y16246
T05
X3550Y1746
X5550Y1746
T06
X1731Y18750
X19054Y18750
X19054Y1427
X1731Y1427
M30
