G75*
%MOIN*%
%OFA0B0*%
%FSLAX24Y24*%
%IPPOS*%
%LPD*%
%AMOC8*
5,1,8,0,0,1.08239X$1,22.5*
%
%ADD10C,0.0000*%
D10*
X000550Y001033D02*
X000550Y019144D01*
X000552Y019198D01*
X000557Y019251D01*
X000566Y019304D01*
X000579Y019356D01*
X000595Y019408D01*
X000615Y019458D01*
X000638Y019506D01*
X000665Y019553D01*
X000694Y019598D01*
X000727Y019641D01*
X000762Y019681D01*
X000800Y019719D01*
X000840Y019754D01*
X000883Y019787D01*
X000928Y019816D01*
X000975Y019843D01*
X001023Y019866D01*
X001073Y019886D01*
X001125Y019902D01*
X001177Y019915D01*
X001230Y019924D01*
X001283Y019929D01*
X001337Y019931D01*
X019448Y019931D01*
X019502Y019929D01*
X019555Y019924D01*
X019608Y019915D01*
X019660Y019902D01*
X019712Y019886D01*
X019762Y019866D01*
X019810Y019843D01*
X019857Y019816D01*
X019902Y019787D01*
X019945Y019754D01*
X019985Y019719D01*
X020023Y019681D01*
X020058Y019641D01*
X020091Y019598D01*
X020120Y019553D01*
X020147Y019506D01*
X020170Y019458D01*
X020190Y019408D01*
X020206Y019356D01*
X020219Y019304D01*
X020228Y019251D01*
X020233Y019198D01*
X020235Y019144D01*
X020235Y001033D01*
X020233Y000979D01*
X020228Y000926D01*
X020219Y000873D01*
X020206Y000821D01*
X020190Y000769D01*
X020170Y000719D01*
X020147Y000671D01*
X020120Y000624D01*
X020091Y000579D01*
X020058Y000536D01*
X020023Y000496D01*
X019985Y000458D01*
X019945Y000423D01*
X019902Y000390D01*
X019857Y000361D01*
X019810Y000334D01*
X019762Y000311D01*
X019712Y000291D01*
X019660Y000275D01*
X019608Y000262D01*
X019555Y000253D01*
X019502Y000248D01*
X019448Y000246D01*
X001337Y000246D01*
X001283Y000248D01*
X001230Y000253D01*
X001177Y000262D01*
X001125Y000275D01*
X001073Y000291D01*
X001023Y000311D01*
X000975Y000334D01*
X000928Y000361D01*
X000883Y000390D01*
X000840Y000423D01*
X000800Y000458D01*
X000762Y000496D01*
X000727Y000536D01*
X000694Y000579D01*
X000665Y000624D01*
X000638Y000671D01*
X000615Y000719D01*
X000595Y000769D01*
X000579Y000821D01*
X000566Y000873D01*
X000557Y000926D01*
X000552Y000979D01*
X000550Y001033D01*
M02*
